<svg width="326" height="408" viewBox="0 0 326 408" fill="none" xmlns="http://www.w3.org/2000/svg">
<g clip-path="url(#clip0_351_3719)">
<rect width="326" height="407.5" rx="20.375" fill="#3B0073"/>
<path fill-rule="evenodd" clip-rule="evenodd" d="M295.4 -46.263C322.544 -44.5414 352.27 -74.8659 374.044 -58.5614C395.907 -42.1895 380.432 -6.30598 384.776 20.6648C388.208 41.9702 398.069 61.1244 396.792 82.6667C395.149 110.367 395.945 141.554 376.436 161.281C356.133 181.811 324.136 187.967 295.4 185.193C268.101 182.557 247.602 162.175 224.986 146.658C201.594 130.608 169.568 120.436 161.41 93.2615C153.269 66.1459 177.127 41.0305 185.119 13.8705C193.443 -14.4204 183.274 -54.9041 209.16 -69.0192C235.918 -83.6098 264.985 -48.1921 295.4 -46.263Z" fill="#F0B342"/>
<path d="M-60.2482 178.458C-63.4657 173.072 -59.6461 166.223 -53.3729 166.13L162.934 162.908C169.207 162.815 173.229 169.547 170.173 175.027L64.8098 363.965C61.7541 369.444 53.9126 369.561 50.6952 364.175L-60.2482 178.458Z" stroke="black" stroke-opacity="0.3" stroke-width="24.45"/>
</g>
<defs>
<clipPath id="clip0_351_3719">
<rect width="326" height="407.5" rx="20.375" fill="white"/>
</clipPath>
</defs>
</svg>
